<mxfile host="app.diagrams.net" modified="2024-02-01T23:17:33.151Z" agent="Mozilla/5.0 (Windows NT 10.0; Win64; x64; rv:122.0) Gecko/20100101 Firefox/122.0" etag="ThDDNDWbHdoU6Ft0R5PE" version="23.1.1" type="github">
  <diagram name="Page-1" id="929967ad-93f9-6ef4-fab6-5d389245f69c">
    <mxGraphModel dx="2206" dy="1191" grid="1" gridSize="10" guides="1" tooltips="1" connect="1" arrows="1" fold="1" page="1" pageScale="1.5" pageWidth="1169" pageHeight="826" background="none" math="0" shadow="0">
      <root>
        <mxCell id="0" style=";html=1;" />
        <mxCell id="1" style=";html=1;" parent="0" />
        <mxCell id="tfv-N6Ib5dmjUL6e6SEw-1" value="Actor" style="shape=umlActor;verticalLabelPosition=bottom;verticalAlign=top;html=1;outlineConnect=0;" vertex="1" parent="1">
          <mxGeometry x="815" y="240" width="90" height="170" as="geometry" />
        </mxCell>
        <mxCell id="tfv-N6Ib5dmjUL6e6SEw-5" value="&lt;font style=&quot;font-size: 20px;&quot;&gt;&lt;b&gt;РЕЗЕРВАЦИЯ НА БИЛЕТ&lt;br&gt;&lt;/b&gt;&lt;/font&gt;" style="rounded=0;whiteSpace=wrap;html=1;" vertex="1" parent="1">
          <mxGeometry x="720" y="530" width="280" height="60" as="geometry" />
        </mxCell>
        <mxCell id="tfv-N6Ib5dmjUL6e6SEw-6" value="&lt;font style=&quot;font-size: 20px;&quot;&gt;&lt;b&gt;ТЪРСЕНЕ НА ПОЛЕТИ&lt;/b&gt;&lt;/font&gt;" style="rounded=0;whiteSpace=wrap;html=1;" vertex="1" parent="1">
          <mxGeometry x="360" y="530" width="280" height="60" as="geometry" />
        </mxCell>
        <mxCell id="tfv-N6Ib5dmjUL6e6SEw-7" value="&lt;font style=&quot;font-size: 20px;&quot;&gt;&lt;b&gt;ПРЕГЛЕД НА ИНФОРМАЦИЯ ЗА ПОЛЕТ&lt;br&gt;&lt;/b&gt;&lt;/font&gt;" style="rounded=0;whiteSpace=wrap;html=1;" vertex="1" parent="1">
          <mxGeometry x="1080" y="530" width="360" height="60" as="geometry" />
        </mxCell>
        <mxCell id="tfv-N6Ib5dmjUL6e6SEw-9" value="&lt;font style=&quot;font-size: 20px;&quot;&gt;&lt;b&gt;АНУЛИРАНЕ НА РЕЗЕРВАЦИЯТА&lt;br&gt;&lt;/b&gt;&lt;/font&gt;" style="rounded=0;whiteSpace=wrap;html=1;" vertex="1" parent="1">
          <mxGeometry x="720" y="780" width="280" height="60" as="geometry" />
        </mxCell>
        <mxCell id="tfv-N6Ib5dmjUL6e6SEw-10" value="&lt;font style=&quot;font-size: 20px;&quot;&gt;&lt;b&gt;ПЛАЩАНЕ НА БИЛЕТА&lt;br&gt;&lt;/b&gt;&lt;/font&gt;" style="rounded=0;whiteSpace=wrap;html=1;" vertex="1" parent="1">
          <mxGeometry x="360" y="780" width="280" height="60" as="geometry" />
        </mxCell>
        <mxCell id="tfv-N6Ib5dmjUL6e6SEw-11" value="&lt;div style=&quot;font-size: 20px;&quot;&gt;&lt;b&gt;&lt;font style=&quot;font-size: 20px;&quot;&gt;ПОЛУЧАВАНЕ НА ЕЛЕКТРОНЕН&lt;/font&gt;&lt;/b&gt;&lt;/div&gt;&lt;div style=&quot;font-size: 20px;&quot;&gt;&lt;b&gt;&lt;font style=&quot;font-size: 20px;&quot;&gt;ПЕЧАТ&lt;br&gt;&lt;/font&gt;&lt;/b&gt;&lt;/div&gt;" style="rounded=0;whiteSpace=wrap;html=1;" vertex="1" parent="1">
          <mxGeometry x="1080" y="780" width="360" height="60" as="geometry" />
        </mxCell>
        <mxCell id="tfv-N6Ib5dmjUL6e6SEw-32" value="" style="endArrow=none;html=1;rounded=0;exitX=1;exitY=0.5;exitDx=0;exitDy=0;entryX=0;entryY=0.5;entryDx=0;entryDy=0;" edge="1" parent="1" source="tfv-N6Ib5dmjUL6e6SEw-6" target="tfv-N6Ib5dmjUL6e6SEw-5">
          <mxGeometry width="50" height="50" relative="1" as="geometry">
            <mxPoint x="800" y="750" as="sourcePoint" />
            <mxPoint x="850" y="700" as="targetPoint" />
          </mxGeometry>
        </mxCell>
        <mxCell id="tfv-N6Ib5dmjUL6e6SEw-33" value="" style="endArrow=none;html=1;rounded=0;exitX=1;exitY=0.5;exitDx=0;exitDy=0;entryX=0;entryY=0.5;entryDx=0;entryDy=0;" edge="1" parent="1" source="tfv-N6Ib5dmjUL6e6SEw-5" target="tfv-N6Ib5dmjUL6e6SEw-7">
          <mxGeometry width="50" height="50" relative="1" as="geometry">
            <mxPoint x="800" y="750" as="sourcePoint" />
            <mxPoint x="850" y="700" as="targetPoint" />
          </mxGeometry>
        </mxCell>
        <mxCell id="tfv-N6Ib5dmjUL6e6SEw-34" value="" style="endArrow=none;html=1;rounded=0;exitX=1;exitY=0.5;exitDx=0;exitDy=0;entryX=0;entryY=0.5;entryDx=0;entryDy=0;" edge="1" parent="1" source="tfv-N6Ib5dmjUL6e6SEw-10" target="tfv-N6Ib5dmjUL6e6SEw-9">
          <mxGeometry width="50" height="50" relative="1" as="geometry">
            <mxPoint x="800" y="750" as="sourcePoint" />
            <mxPoint x="850" y="700" as="targetPoint" />
          </mxGeometry>
        </mxCell>
        <mxCell id="tfv-N6Ib5dmjUL6e6SEw-35" value="" style="endArrow=none;html=1;rounded=0;exitX=1;exitY=0.5;exitDx=0;exitDy=0;entryX=0;entryY=0.5;entryDx=0;entryDy=0;" edge="1" parent="1" source="tfv-N6Ib5dmjUL6e6SEw-9" target="tfv-N6Ib5dmjUL6e6SEw-11">
          <mxGeometry width="50" height="50" relative="1" as="geometry">
            <mxPoint x="800" y="750" as="sourcePoint" />
            <mxPoint x="850" y="700" as="targetPoint" />
          </mxGeometry>
        </mxCell>
        <mxCell id="tfv-N6Ib5dmjUL6e6SEw-36" value="" style="endArrow=none;html=1;rounded=0;exitX=0.429;exitY=0.033;exitDx=0;exitDy=0;exitPerimeter=0;" edge="1" parent="1" source="tfv-N6Ib5dmjUL6e6SEw-6">
          <mxGeometry width="50" height="50" relative="1" as="geometry">
            <mxPoint x="610" y="680" as="sourcePoint" />
            <mxPoint x="480" y="460" as="targetPoint" />
          </mxGeometry>
        </mxCell>
        <mxCell id="tfv-N6Ib5dmjUL6e6SEw-37" value="" style="endArrow=none;html=1;rounded=0;" edge="1" parent="1">
          <mxGeometry width="50" height="50" relative="1" as="geometry">
            <mxPoint x="480" y="460" as="sourcePoint" />
            <mxPoint x="1280" y="460" as="targetPoint" />
            <Array as="points" />
          </mxGeometry>
        </mxCell>
        <mxCell id="tfv-N6Ib5dmjUL6e6SEw-38" value="" style="endArrow=none;html=1;rounded=0;entryX=0.557;entryY=0.014;entryDx=0;entryDy=0;entryPerimeter=0;" edge="1" parent="1" target="tfv-N6Ib5dmjUL6e6SEw-7">
          <mxGeometry width="50" height="50" relative="1" as="geometry">
            <mxPoint x="1280" y="460" as="sourcePoint" />
            <mxPoint x="940" y="360" as="targetPoint" />
          </mxGeometry>
        </mxCell>
        <mxCell id="tfv-N6Ib5dmjUL6e6SEw-40" value="" style="endArrow=none;html=1;rounded=0;entryX=0.5;entryY=1;entryDx=0;entryDy=0;" edge="1" parent="1" source="tfv-N6Ib5dmjUL6e6SEw-5" target="tfv-N6Ib5dmjUL6e6SEw-41">
          <mxGeometry width="50" height="50" relative="1" as="geometry">
            <mxPoint x="840" y="450" as="sourcePoint" />
            <mxPoint x="860" y="460" as="targetPoint" />
          </mxGeometry>
        </mxCell>
        <mxCell id="tfv-N6Ib5dmjUL6e6SEw-41" value="&lt;font style=&quot;font-size: 20px;&quot;&gt;&lt;b&gt;ПОТРЕБИТЕЛ&lt;/b&gt;&lt;/font&gt;" style="rounded=0;whiteSpace=wrap;html=1;" vertex="1" parent="1">
          <mxGeometry x="775" y="370" width="170" height="60" as="geometry" />
        </mxCell>
        <mxCell id="tfv-N6Ib5dmjUL6e6SEw-43" value="" style="endArrow=none;dashed=1;html=1;dashPattern=1 3;strokeWidth=2;rounded=0;exitX=0.424;exitY=1.035;exitDx=0;exitDy=0;exitPerimeter=0;entryX=0.429;entryY=0.022;entryDx=0;entryDy=0;entryPerimeter=0;" edge="1" parent="1" source="tfv-N6Ib5dmjUL6e6SEw-6" target="tfv-N6Ib5dmjUL6e6SEw-10">
          <mxGeometry width="50" height="50" relative="1" as="geometry">
            <mxPoint x="740" y="620" as="sourcePoint" />
            <mxPoint x="790" y="570" as="targetPoint" />
          </mxGeometry>
        </mxCell>
        <mxCell id="tfv-N6Ib5dmjUL6e6SEw-45" value="" style="endArrow=none;dashed=1;html=1;rounded=0;exitX=0.5;exitY=0;exitDx=0;exitDy=0;entryX=0.5;entryY=1;entryDx=0;entryDy=0;" edge="1" parent="1" source="tfv-N6Ib5dmjUL6e6SEw-9" target="tfv-N6Ib5dmjUL6e6SEw-5">
          <mxGeometry width="50" height="50" relative="1" as="geometry">
            <mxPoint x="740" y="620" as="sourcePoint" />
            <mxPoint x="790" y="570" as="targetPoint" />
          </mxGeometry>
        </mxCell>
        <mxCell id="tfv-N6Ib5dmjUL6e6SEw-46" value="" style="endArrow=none;dashed=1;html=1;rounded=0;exitX=0.556;exitY=0;exitDx=0;exitDy=0;exitPerimeter=0;entryX=0.552;entryY=1.06;entryDx=0;entryDy=0;entryPerimeter=0;" edge="1" parent="1" source="tfv-N6Ib5dmjUL6e6SEw-11" target="tfv-N6Ib5dmjUL6e6SEw-7">
          <mxGeometry width="50" height="50" relative="1" as="geometry">
            <mxPoint x="740" y="620" as="sourcePoint" />
            <mxPoint x="790" y="570" as="targetPoint" />
          </mxGeometry>
        </mxCell>
        <mxCell id="tfv-N6Ib5dmjUL6e6SEw-47" value="&lt;font style=&quot;font-size: 20px;&quot;&gt;&lt;b&gt;ОНЛАЙН СИСТЕМА ЗА КУПУВАНЕ НА БИЛЕТИ&lt;/b&gt;&lt;/font&gt;" style="rounded=0;whiteSpace=wrap;html=1;" vertex="1" parent="1">
          <mxGeometry x="660" y="110" width="400" height="60" as="geometry" />
        </mxCell>
      </root>
    </mxGraphModel>
  </diagram>
</mxfile>
